<svg version="1.1" preserveAspectRatio="none" xmlns="http://www.w3.org/2000/svg" width="500" height="500" viewBox="0 0 500 500"><rect width="100%" height="100%" fill="#EFFFE0" fill-opacity="1"/><svg viewBox="-36.9551 69.5117 382.1672 195.2269" width="333" height="170.1102493882259" x="83.5px" y="164.9449px" xmlns="http://www.w3.org/2000/svg" xmlns:xlink="http://www.w3.org/1999/xlink" preserveAspectRatio="none"><defs></defs><style>.companyName {fill:#313131;fill-opacity:1;}.icon1 {fill:#313131;fill-opacity:1;}.icon2 {fill:#C2EF7E;fill-opacity:1;}.icon3 {fill:#6B7D3B;fill-opacity:1;}.icon3-str {stroke:#6B7D3B;stroke-opacity:1;}.text {fill:#313131;fill-opacity:1;}</style><g opacity="1" transform="rotate(0 -27.8345 243.1386)">
<svg width="363.9259" height="21.6" x="-27.8345" y="243.1386" version="1.1" preserveAspectRatio="none" viewBox="1.16 -29.46 618.94 36.74">
  <g transform="matrix(1 0 0 1 0 0)" class="text"><path id="id-6izo4zJp30" d="M19.10-26.02L18.16-24.18Q17.98-23.88 17.78-23.73Q17.58-23.58 17.26-23.58L17.26-23.58Q16.92-23.58 16.47-23.92Q16.02-24.26 15.33-24.67Q14.64-25.08 13.67-25.42Q12.70-25.76 11.32-25.76L11.32-25.76Q10.02-25.76 9.02-25.41Q8.02-25.06 7.35-24.46Q6.68-23.86 6.34-23.05Q6-22.24 6-21.30L6-21.30Q6-20.10 6.59-19.31Q7.18-18.52 8.15-17.96Q9.12-17.40 10.35-16.99Q11.58-16.58 12.87-16.14Q14.16-15.70 15.39-15.15Q16.62-14.60 17.59-13.76Q18.56-12.92 19.15-11.70Q19.74-10.48 19.74-8.70L19.74-8.70Q19.74-6.82 19.10-5.17Q18.46-3.52 17.23-2.30Q16-1.08 14.21-0.38Q12.42 0.32 10.14 0.32L10.14 0.32Q7.36 0.32 5.07-0.69Q2.78-1.70 1.16-3.42L1.16-3.42L2.28-5.26Q2.44-5.48 2.67-5.63Q2.90-5.78 3.18-5.78L3.18-5.78Q3.60-5.78 4.14-5.33Q4.68-4.88 5.49-4.34Q6.30-3.80 7.45-3.35Q8.60-2.90 10.26-2.90L10.26-2.90Q11.64-2.90 12.72-3.28Q13.80-3.66 14.55-4.35Q15.30-5.04 15.70-6Q16.10-6.96 16.10-8.14L16.10-8.14Q16.10-9.44 15.51-10.27Q14.92-11.10 13.96-11.66Q13-12.22 11.77-12.61Q10.54-13 9.25-13.41Q7.96-13.82 6.73-14.36Q5.50-14.90 4.54-15.76Q3.58-16.62 2.99-17.91Q2.40-19.20 2.40-21.10L2.40-21.10Q2.40-22.62 2.99-24.04Q3.58-25.46 4.70-26.56Q5.82-27.66 7.47-28.32Q9.12-28.98 11.26-28.98L11.26-28.98Q13.66-28.98 15.64-28.22Q17.62-27.46 19.10-26.02L19.10-26.02Z M34.54-20.58L34.54-20.58Q36.36-20.58 37.90-19.97Q39.44-19.36 40.56-18.21Q41.68-17.06 42.31-15.37Q42.94-13.68 42.94-11.52L42.94-11.52Q42.94-10.68 42.76-10.40Q42.58-10.12 42.08-10.12L42.08-10.12L28.60-10.12Q28.64-8.20 29.12-6.78Q29.60-5.36 30.44-4.41Q31.28-3.46 32.44-2.99Q33.60-2.52 35.04-2.52L35.04-2.52Q36.38-2.52 37.35-2.83Q38.32-3.14 39.02-3.50Q39.72-3.86 40.19-4.17Q40.66-4.48 41-4.48L41-4.48Q41.44-4.48 41.68-4.14L41.68-4.14L42.68-2.84Q42.02-2.04 41.10-1.45Q40.18-0.86 39.13-0.48Q38.08-0.10 36.96 0.09Q35.84 0.28 34.74 0.28L34.74 0.28Q32.64 0.28 30.87-0.43Q29.10-1.14 27.81-2.51Q26.52-3.88 25.80-5.90Q25.08-7.92 25.08-10.54L25.08-10.54Q25.08-12.66 25.73-14.50Q26.38-16.34 27.60-17.69Q28.82-19.04 30.58-19.81Q32.34-20.58 34.54-20.58ZM34.62-17.96L34.62-17.96Q32.04-17.96 30.56-16.47Q29.08-14.98 28.72-12.34L28.72-12.34L39.74-12.34Q39.74-13.58 39.40-14.61Q39.06-15.64 38.40-16.39Q37.74-17.14 36.79-17.55Q35.84-17.96 34.62-17.96Z M53.80 0L47.24-20.26L50.04-20.26Q50.48-20.26 50.76-20.04Q51.04-19.82 51.14-19.52L51.14-19.52L55.02-6.48Q55.18-5.76 55.32-5.09Q55.46-4.42 55.56-3.74L55.56-3.74Q55.72-4.42 55.92-5.09Q56.12-5.76 56.34-6.48L56.34-6.48L60.62-19.60Q60.72-19.90 60.97-20.10Q61.22-20.30 61.60-20.30L61.60-20.30L63.14-20.30Q63.54-20.30 63.80-20.10Q64.06-19.90 64.16-19.60L64.16-19.60L68.34-6.48Q68.56-5.78 68.73-5.10Q68.90-4.42 69.06-3.76L69.06-3.76Q69.16-4.42 69.32-5.14Q69.48-5.86 69.66-6.48L69.66-6.48L73.62-19.52Q73.72-19.84 74-20.05Q74.28-20.26 74.66-20.26L74.66-20.26L77.34-20.26L70.78 0L67.96 0Q67.44 0 67.24-0.68L67.24-0.68L62.76-14.42Q62.60-14.88 62.50-15.35Q62.40-15.82 62.30-16.28L62.30-16.28Q62.20-15.82 62.10-15.34Q62-14.86 61.84-14.40L61.84-14.40L57.30-0.68Q57.08 0 56.48 0L56.48 0L53.80 0Z M97.80-12.96L97.80 0L96.22 0Q95.70 0 95.38-0.16Q95.06-0.32 94.96-0.84L94.96-0.84L94.56-2.72Q93.76-2 93-1.43Q92.24-0.86 91.40-0.47Q90.56-0.08 89.61 0.12Q88.66 0.32 87.50 0.32L87.50 0.32Q86.32 0.32 85.29-0.01Q84.26-0.34 83.50-1Q82.74-1.66 82.29-2.67Q81.84-3.68 81.84-5.06L81.84-5.06Q81.84-6.26 82.50-7.37Q83.16-8.48 84.63-9.34Q86.10-10.20 88.48-10.75Q90.86-11.30 94.30-11.38L94.30-11.38L94.30-12.96Q94.30-15.32 93.29-16.53Q92.28-17.74 90.30-17.74L90.30-17.74Q89-17.74 88.11-17.41Q87.22-17.08 86.57-16.67Q85.92-16.26 85.45-15.93Q84.98-15.60 84.52-15.60L84.52-15.60Q84.16-15.60 83.89-15.79Q83.62-15.98 83.46-16.26L83.46-16.26L82.82-17.40Q84.50-19.02 86.44-19.82Q88.38-20.62 90.74-20.62L90.74-20.62Q92.44-20.62 93.76-20.06Q95.08-19.50 95.98-18.50Q96.88-17.50 97.34-16.08Q97.80-14.66 97.80-12.96L97.80-12.96ZM88.56-2.18L88.56-2.18Q89.50-2.18 90.28-2.37Q91.06-2.56 91.75-2.91Q92.44-3.26 93.07-3.76Q93.70-4.26 94.30-4.90L94.30-4.90L94.30-9.12Q91.84-9.04 90.12-8.73Q88.40-8.42 87.32-7.92Q86.24-7.42 85.75-6.74Q85.26-6.06 85.26-5.22L85.26-5.22Q85.26-4.42 85.52-3.84Q85.78-3.26 86.22-2.89Q86.66-2.52 87.26-2.35Q87.86-2.18 88.56-2.18Z M130.38-10.36L130.38-10.36Q130.66-9.88 130.87-9.35Q131.08-8.82 131.28-8.28L131.28-8.28Q131.48-8.84 131.70-9.35Q131.92-9.86 132.20-10.38L132.20-10.38L141.90-28Q142.16-28.46 142.44-28.56Q142.72-28.66 143.24-28.66L143.24-28.66L146.10-28.66L146.10 0L142.70 0L142.70-21.06Q142.70-21.48 142.72-21.96Q142.74-22.44 142.78-22.94L142.78-22.94L132.96-5.02Q132.46-4.12 131.56-4.12L131.56-4.12L131-4.12Q130.10-4.12 129.60-5.02L129.60-5.02L119.56-23Q119.62-22.48 119.65-21.98Q119.68-21.48 119.68-21.06L119.68-21.06L119.68 0L116.28 0L116.28-28.66L119.14-28.66Q119.66-28.66 119.94-28.56Q120.22-28.46 120.48-28L120.48-28L130.38-10.36Z M163.12-20.58L163.12-20.58Q165.34-20.58 167.13-19.84Q168.92-19.10 170.17-17.74Q171.42-16.38 172.09-14.45Q172.76-12.52 172.76-10.14L172.76-10.14Q172.76-7.74 172.09-5.82Q171.42-3.90 170.17-2.54Q168.92-1.18 167.13-0.45Q165.34 0.28 163.12 0.28L163.12 0.28Q160.90 0.28 159.11-0.45Q157.32-1.18 156.06-2.54Q154.80-3.90 154.12-5.82Q153.44-7.74 153.44-10.14L153.44-10.14Q153.44-12.52 154.12-14.45Q154.80-16.38 156.06-17.74Q157.32-19.10 159.11-19.84Q160.90-20.58 163.12-20.58ZM163.12-2.50L163.12-2.50Q166.12-2.50 167.60-4.51Q169.08-6.52 169.08-10.12L169.08-10.12Q169.08-13.74 167.60-15.76Q166.12-17.78 163.12-17.78L163.12-17.78Q161.60-17.78 160.48-17.26Q159.36-16.74 158.61-15.76Q157.86-14.78 157.49-13.35Q157.12-11.92 157.12-10.12L157.12-10.12Q157.12-8.32 157.49-6.90Q157.86-5.48 158.61-4.51Q159.36-3.54 160.48-3.02Q161.60-2.50 163.12-2.50Z M181.98 0L179.68 0L179.68-29.46L183.26-29.46L183.26-17.34Q184.52-18.80 186.15-19.69Q187.78-20.58 189.88-20.58L189.88-20.58Q191.64-20.58 193.06-19.92Q194.48-19.26 195.48-17.95Q196.48-16.64 197.02-14.71Q197.56-12.78 197.56-10.26L197.56-10.26Q197.56-8.02 196.96-6.09Q196.36-4.16 195.23-2.75Q194.10-1.34 192.47-0.53Q190.84 0.28 188.80 0.28L188.80 0.28Q186.84 0.28 185.47-0.48Q184.10-1.24 183.08-2.60L183.08-2.60L182.90-0.76Q182.74 0 181.98 0L181.98 0ZM188.72-17.74L188.72-17.74Q186.98-17.74 185.67-16.94Q184.36-16.14 183.26-14.68L183.26-14.68L183.26-4.88Q184.22-3.56 185.39-3.02Q186.56-2.48 188.00-2.48L188.00-2.48Q190.84-2.48 192.36-4.50Q193.88-6.52 193.88-10.26L193.88-10.26Q193.88-12.24 193.53-13.66Q193.18-15.08 192.52-15.99Q191.86-16.90 190.90-17.32Q189.94-17.74 188.72-17.74Z M204.72-20.26L208.28-20.26L208.28 0L204.72 0L204.72-20.26ZM209.08-26.62L209.08-26.62Q209.08-26.10 208.87-25.65Q208.66-25.20 208.31-24.85Q207.96-24.50 207.50-24.30Q207.04-24.10 206.52-24.10L206.52-24.10Q206.00-24.10 205.55-24.30Q205.10-24.50 204.75-24.85Q204.40-25.20 204.20-25.65Q204.00-26.10 204.00-26.62L204.00-26.62Q204.00-27.14 204.20-27.61Q204.40-28.08 204.75-28.43Q205.10-28.78 205.55-28.98Q206.00-29.18 206.52-29.18L206.52-29.18Q207.04-29.18 207.50-28.98Q207.96-28.78 208.31-28.43Q208.66-28.08 208.87-27.61Q209.08-27.14 209.08-26.62Z M217.36-29.46L220.92-29.46L220.92 0L217.36 0L217.36-29.46Z M228.56-2.46L228.56-2.46Q228.56-2.92 228.73-3.33Q228.90-3.74 229.21-4.05Q229.52-4.36 229.96-4.54Q230.40-4.72 230.92-4.72L230.92-4.72Q231.52-4.72 231.99-4.50Q232.46-4.28 232.77-3.89Q233.08-3.50 233.24-2.99Q233.40-2.48 233.40-1.88L233.40-1.88Q233.40-0.98 233.14-0.01Q232.88 0.96 232.40 1.91Q231.92 2.86 231.21 3.76Q230.50 4.66 229.60 5.42L229.60 5.42L229.00 4.84Q228.74 4.60 228.74 4.28L228.74 4.28Q228.74 4.02 229.02 3.74L229.02 3.74Q229.22 3.52 229.53 3.15Q229.84 2.78 230.16 2.30Q230.48 1.82 230.75 1.24Q231.02 0.66 231.14 0L231.14 0L230.88 0Q230.36 0 229.94-0.18Q229.52-0.36 229.21-0.69Q228.90-1.02 228.73-1.47Q228.56-1.92 228.56-2.46Z M253.16-28.66L253.16-28.66Q253.68-28.66 253.93-28.53Q254.18-28.40 254.50-28L254.50-28L271.10-6.40Q271.04-6.92 271.02-7.41Q271.00-7.90 271.00-8.36L271.00-8.36L271.00-28.66L274.40-28.66L274.40 0L272.44 0Q271.98 0 271.67-0.16Q271.36-0.32 271.06-0.70L271.06-0.70L254.48-22.28Q254.52-21.78 254.54-21.30Q254.56-20.82 254.56-20.42L254.56-20.42L254.56 0L251.16 0L251.16-28.66L253.16-28.66Z M283.64-20.26L287.20-20.26L287.20 0L283.64 0L283.64-20.26ZM288.00-26.62L288.00-26.62Q288.00-26.10 287.79-25.65Q287.58-25.20 287.23-24.85Q286.88-24.50 286.42-24.30Q285.96-24.10 285.44-24.10L285.44-24.10Q284.92-24.10 284.47-24.30Q284.02-24.50 283.67-24.85Q283.32-25.20 283.12-25.65Q282.92-26.10 282.92-26.62L282.92-26.62Q282.92-27.14 283.12-27.61Q283.32-28.08 283.67-28.43Q284.02-28.78 284.47-28.98Q284.92-29.18 285.44-29.18L285.44-29.18Q285.96-29.18 286.42-28.98Q286.88-28.78 287.23-28.43Q287.58-28.08 287.79-27.61Q288.00-27.14 288.00-26.62Z M296.00-29.46L299.58-29.46L299.58-12.12L300.50-12.12Q300.90-12.12 301.16-12.23Q301.42-12.34 301.74-12.68L301.74-12.68L308.14-19.54Q308.44-19.86 308.74-20.06Q309.04-20.26 309.54-20.26L309.54-20.26L312.78-20.26L305.32-12.32Q305.04-11.98 304.77-11.72Q304.50-11.46 304.16-11.26L304.16-11.26Q304.52-11.02 304.81-10.71Q305.10-10.40 305.36-10L305.36-10L313.28 0L310.08 0Q309.64 0 309.33-0.17Q309.02-0.34 308.74-0.70L308.74-0.70L302.08-9Q301.78-9.42 301.48-9.55Q301.18-9.68 300.58-9.68L300.58-9.68L299.58-9.68L299.58 0L296.00 0L296.00-29.46Z M322.80 0L319.24 0L319.24-20.26L321.36-20.26Q322.12-20.26 322.32-19.52L322.32-19.52L322.58-17.44Q323.70-18.82 325.09-19.70Q326.48-20.58 328.32-20.58L328.32-20.58Q330.38-20.58 331.65-19.44Q332.92-18.30 333.48-16.36L333.48-16.36Q333.90-17.46 334.59-18.26Q335.28-19.06 336.14-19.58Q337-20.10 337.97-20.34Q338.94-20.58 339.94-20.58L339.94-20.58Q341.54-20.58 342.79-20.07Q344.04-19.56 344.91-18.58Q345.78-17.60 346.24-16.17Q346.70-14.74 346.70-12.90L346.70-12.90L346.70 0L343.14 0L343.14-12.90Q343.14-15.28 342.10-16.51Q341.06-17.74 339.08-17.74L339.08-17.74Q338.20-17.74 337.41-17.43Q336.62-17.12 336.02-16.52Q335.42-15.92 335.07-15.01Q334.72-14.10 334.72-12.90L334.72-12.90L334.72 0L331.16 0L331.16-12.90Q331.16-15.34 330.18-16.54Q329.20-17.74 327.32-17.74L327.32-17.74Q326-17.74 324.87-17.03Q323.74-16.32 322.80-15.10L322.80-15.10L322.80 0Z M369.36-12.96L369.36 0L367.78 0Q367.26 0 366.94-0.16Q366.62-0.32 366.52-0.84L366.52-0.84L366.12-2.72Q365.32-2 364.56-1.43Q363.80-0.86 362.96-0.47Q362.12-0.08 361.17 0.12Q360.22 0.32 359.06 0.32L359.06 0.32Q357.88 0.32 356.85-0.01Q355.82-0.34 355.06-1Q354.30-1.66 353.85-2.67Q353.40-3.68 353.40-5.06L353.40-5.06Q353.40-6.26 354.06-7.37Q354.72-8.48 356.19-9.34Q357.66-10.20 360.04-10.75Q362.42-11.30 365.86-11.38L365.86-11.38L365.86-12.96Q365.86-15.32 364.85-16.53Q363.84-17.74 361.86-17.74L361.86-17.74Q360.56-17.74 359.67-17.41Q358.78-17.08 358.13-16.67Q357.48-16.26 357.01-15.93Q356.54-15.60 356.08-15.60L356.08-15.60Q355.72-15.60 355.45-15.79Q355.18-15.98 355.02-16.26L355.02-16.26L354.38-17.40Q356.06-19.02 358.00-19.82Q359.94-20.62 362.30-20.62L362.30-20.62Q364.00-20.62 365.32-20.06Q366.64-19.50 367.54-18.50Q368.44-17.50 368.90-16.08Q369.36-14.66 369.36-12.96L369.36-12.96ZM360.12-2.18L360.12-2.18Q361.06-2.18 361.84-2.37Q362.62-2.56 363.31-2.91Q364.00-3.26 364.63-3.76Q365.26-4.26 365.86-4.90L365.86-4.90L365.86-9.12Q363.40-9.04 361.68-8.73Q359.96-8.42 358.88-7.92Q357.80-7.42 357.31-6.74Q356.82-6.06 356.82-5.22L356.82-5.22Q356.82-4.42 357.08-3.84Q357.34-3.26 357.78-2.89Q358.22-2.52 358.82-2.35Q359.42-2.18 360.12-2.18Z M383.30 0.32L383.30 0.32Q380.90 0.32 379.61-1.02Q378.32-2.36 378.32-4.88L378.32-4.88L378.32-17.28L375.88-17.28Q375.56-17.28 375.34-17.47Q375.12-17.66 375.12-18.06L375.12-18.06L375.12-19.48L378.44-19.90L379.26-26.16Q379.30-26.46 379.52-26.65Q379.74-26.84 380.08-26.84L380.08-26.84L381.88-26.84L381.88-19.86L387.68-19.86L387.68-17.28L381.88-17.28L381.88-5.12Q381.88-3.84 382.50-3.22Q383.12-2.60 384.10-2.60L384.10-2.60Q384.66-2.60 385.07-2.75Q385.48-2.90 385.78-3.08Q386.08-3.26 386.29-3.41Q386.50-3.56 386.66-3.56L386.66-3.56Q386.94-3.56 387.16-3.22L387.16-3.22L388.20-1.52Q387.28-0.66 385.98-0.17Q384.68 0.32 383.30 0.32Z M394.88-20.26L398.44-20.26L398.44 0L394.88 0L394.88-20.26ZM399.24-26.62L399.24-26.62Q399.24-26.10 399.03-25.65Q398.82-25.20 398.47-24.85Q398.12-24.50 397.66-24.30Q397.20-24.10 396.68-24.10L396.68-24.10Q396.16-24.10 395.71-24.30Q395.26-24.50 394.91-24.85Q394.56-25.20 394.36-25.65Q394.16-26.10 394.16-26.62L394.16-26.62Q394.16-27.14 394.36-27.61Q394.56-28.08 394.91-28.43Q395.26-28.78 395.71-28.98Q396.16-29.18 396.68-29.18L396.68-29.18Q397.20-29.18 397.66-28.98Q398.12-28.78 398.47-28.43Q398.82-28.08 399.03-27.61Q399.24-27.14 399.24-26.62Z M426.66-10.72L422.06-10.72L422.06 0L418.20 0L418.20-28.66L426.66-28.66Q429.38-28.66 431.39-28.03Q433.40-27.40 434.72-26.24Q436.04-25.08 436.69-23.44Q437.34-21.80 437.34-19.78L437.34-19.78Q437.34-17.78 436.64-16.12Q435.94-14.46 434.59-13.26Q433.24-12.06 431.24-11.39Q429.24-10.72 426.66-10.72L426.66-10.72ZM422.06-25.60L422.06-13.80L426.66-13.80Q428.32-13.80 429.59-14.24Q430.86-14.68 431.72-15.47Q432.58-16.26 433.02-17.36Q433.46-18.46 433.46-19.78L433.46-19.78Q433.46-22.52 431.77-24.06Q430.08-25.60 426.66-25.60L426.66-25.60L422.06-25.60Z M451.50-20.58L451.50-20.58Q453.32-20.58 454.86-19.97Q456.40-19.36 457.52-18.21Q458.64-17.06 459.27-15.37Q459.90-13.68 459.90-11.52L459.90-11.52Q459.90-10.68 459.72-10.40Q459.54-10.12 459.04-10.12L459.04-10.12L445.56-10.12Q445.60-8.20 446.08-6.78Q446.56-5.36 447.40-4.41Q448.24-3.46 449.40-2.99Q450.56-2.52 452.00-2.52L452.00-2.52Q453.34-2.52 454.31-2.83Q455.28-3.14 455.98-3.50Q456.68-3.86 457.15-4.17Q457.62-4.48 457.96-4.48L457.96-4.48Q458.40-4.48 458.64-4.14L458.64-4.14L459.64-2.84Q458.98-2.04 458.06-1.45Q457.14-0.86 456.09-0.48Q455.04-0.10 453.92 0.09Q452.80 0.28 451.70 0.28L451.70 0.28Q449.60 0.28 447.83-0.43Q446.06-1.14 444.77-2.51Q443.48-3.88 442.76-5.90Q442.04-7.92 442.04-10.54L442.04-10.54Q442.04-12.66 442.69-14.50Q443.34-16.34 444.56-17.69Q445.78-19.04 447.54-19.81Q449.30-20.58 451.50-20.58ZM451.58-17.96L451.58-17.96Q449.00-17.96 447.52-16.47Q446.04-14.98 445.68-12.34L445.68-12.34L456.70-12.34Q456.70-13.58 456.36-14.61Q456.02-15.64 455.36-16.39Q454.70-17.14 453.75-17.55Q452.80-17.96 451.58-17.96Z M470.40 0L466.84 0L466.84-20.26L468.88-20.26Q469.46-20.26 469.68-20.04Q469.90-19.82 469.98-19.28L469.98-19.28L470.22-16.12Q471.26-18.24 472.79-19.43Q474.32-20.62 476.38-20.62L476.38-20.62Q477.22-20.62 477.90-20.43Q478.58-20.24 479.16-19.90L479.16-19.90L478.70-17.24Q478.56-16.74 478.08-16.74L478.08-16.74Q477.80-16.74 477.22-16.93Q476.64-17.12 475.60-17.12L475.60-17.12Q473.74-17.12 472.49-16.04Q471.24-14.96 470.40-12.90L470.40-12.90L470.40 0Z M485.76-20.26L489.32-20.26L489.32 1.50Q489.32 2.72 489.00 3.77Q488.68 4.82 487.99 5.60Q487.30 6.38 486.21 6.83Q485.12 7.28 483.60 7.28L483.60 7.28Q482.94 7.28 482.40 7.18Q481.86 7.08 481.32 6.88L481.32 6.88L481.48 4.96Q481.52 4.70 481.66 4.63Q481.80 4.56 482.10 4.56L482.10 4.56Q482.26 4.56 482.44 4.57Q482.62 4.58 482.88 4.58L482.88 4.58Q484.44 4.58 485.10 3.85Q485.76 3.12 485.76 1.50L485.76 1.50L485.76-20.26ZM490.12-26.62L490.12-26.62Q490.12-26.10 489.91-25.65Q489.70-25.20 489.35-24.85Q489.00-24.50 488.54-24.30Q488.08-24.10 487.56-24.10L487.56-24.10Q487.04-24.10 486.59-24.30Q486.14-24.50 485.79-24.85Q485.44-25.20 485.24-25.65Q485.04-26.10 485.04-26.62L485.04-26.62Q485.04-27.14 485.24-27.61Q485.44-28.08 485.79-28.43Q486.14-28.78 486.59-28.98Q487.04-29.18 487.56-29.18L487.56-29.18Q488.08-29.18 488.54-28.98Q489.00-28.78 489.35-28.43Q489.70-28.08 489.91-27.61Q490.12-27.14 490.12-26.62Z M512.80-12.96L512.80 0L511.22 0Q510.70 0 510.38-0.16Q510.06-0.32 509.96-0.84L509.96-0.84L509.56-2.72Q508.76-2 508.00-1.43Q507.24-0.86 506.40-0.47Q505.56-0.08 504.61 0.12Q503.66 0.32 502.50 0.32L502.50 0.32Q501.32 0.32 500.29-0.01Q499.26-0.34 498.50-1Q497.74-1.66 497.29-2.67Q496.84-3.68 496.84-5.06L496.84-5.06Q496.84-6.26 497.50-7.37Q498.16-8.48 499.63-9.34Q501.10-10.20 503.48-10.75Q505.86-11.30 509.30-11.38L509.30-11.38L509.30-12.96Q509.30-15.32 508.29-16.53Q507.28-17.74 505.30-17.74L505.30-17.74Q504.00-17.74 503.11-17.41Q502.22-17.08 501.57-16.67Q500.92-16.26 500.45-15.93Q499.98-15.60 499.52-15.60L499.52-15.60Q499.16-15.60 498.89-15.79Q498.62-15.98 498.46-16.26L498.46-16.26L497.82-17.40Q499.50-19.02 501.44-19.82Q503.38-20.62 505.74-20.62L505.74-20.62Q507.44-20.62 508.76-20.06Q510.08-19.50 510.98-18.50Q511.88-17.50 512.34-16.08Q512.80-14.66 512.80-12.96L512.80-12.96ZM503.56-2.18L503.56-2.18Q504.50-2.18 505.28-2.37Q506.06-2.56 506.75-2.91Q507.44-3.26 508.07-3.76Q508.70-4.26 509.30-4.90L509.30-4.90L509.30-9.12Q506.84-9.04 505.12-8.73Q503.40-8.42 502.32-7.92Q501.24-7.42 500.75-6.74Q500.26-6.06 500.26-5.22L500.26-5.22Q500.26-4.42 500.52-3.84Q500.78-3.26 501.22-2.89Q501.66-2.52 502.26-2.35Q502.86-2.18 503.56-2.18Z M521.00-29.46L524.56-29.46L524.56 0L521.00 0L521.00-29.46Z M548.12-12.96L548.12 0L546.54 0Q546.02 0 545.70-0.16Q545.38-0.32 545.28-0.84L545.28-0.84L544.88-2.72Q544.08-2 543.32-1.43Q542.56-0.86 541.72-0.47Q540.88-0.08 539.93 0.12Q538.98 0.32 537.82 0.32L537.82 0.32Q536.64 0.32 535.61-0.01Q534.58-0.34 533.82-1Q533.06-1.66 532.61-2.67Q532.16-3.68 532.16-5.06L532.16-5.06Q532.16-6.26 532.82-7.37Q533.48-8.48 534.95-9.34Q536.42-10.20 538.80-10.75Q541.18-11.30 544.62-11.38L544.62-11.38L544.62-12.96Q544.62-15.32 543.61-16.53Q542.60-17.74 540.62-17.74L540.62-17.74Q539.32-17.74 538.43-17.41Q537.54-17.08 536.89-16.67Q536.24-16.26 535.77-15.93Q535.30-15.60 534.84-15.60L534.84-15.60Q534.48-15.60 534.21-15.79Q533.94-15.98 533.78-16.26L533.78-16.26L533.14-17.40Q534.82-19.02 536.76-19.82Q538.70-20.62 541.06-20.62L541.06-20.62Q542.76-20.62 544.08-20.06Q545.40-19.50 546.30-18.50Q547.20-17.50 547.66-16.08Q548.12-14.66 548.12-12.96L548.12-12.96ZM538.88-2.18L538.88-2.18Q539.82-2.18 540.60-2.37Q541.38-2.56 542.07-2.91Q542.76-3.26 543.39-3.76Q544.02-4.26 544.62-4.90L544.62-4.90L544.62-9.12Q542.16-9.04 540.44-8.73Q538.72-8.42 537.64-7.92Q536.56-7.42 536.07-6.74Q535.58-6.06 535.58-5.22L535.58-5.22Q535.58-4.42 535.84-3.84Q536.10-3.26 536.54-2.89Q536.98-2.52 537.58-2.35Q538.18-2.18 538.88-2.18Z M559.48 0L555.92 0L555.92-20.26L558.04-20.26Q558.80-20.26 559.00-19.52L559.00-19.52L559.28-17.32Q560.60-18.78 562.23-19.68Q563.86-20.58 566.00-20.58L566.00-20.58Q567.66-20.58 568.93-20.03Q570.20-19.48 571.05-18.47Q571.90-17.46 572.34-16.04Q572.78-14.62 572.78-12.90L572.78-12.90L572.78 0L569.22 0L569.22-12.90Q569.22-15.20 568.17-16.47Q567.12-17.74 564.96-17.74L564.96-17.74Q563.38-17.74 562.01-16.98Q560.64-16.22 559.48-14.92L559.48-14.92L559.48 0Z M595.44-12.96L595.44 0L593.86 0Q593.34 0 593.02-0.16Q592.70-0.32 592.60-0.84L592.60-0.84L592.20-2.72Q591.40-2 590.64-1.43Q589.88-0.86 589.04-0.47Q588.20-0.08 587.25 0.12Q586.30 0.32 585.14 0.32L585.14 0.32Q583.96 0.32 582.93-0.01Q581.90-0.34 581.14-1Q580.38-1.66 579.93-2.67Q579.48-3.68 579.48-5.06L579.48-5.06Q579.48-6.26 580.14-7.37Q580.80-8.48 582.27-9.34Q583.74-10.20 586.12-10.75Q588.50-11.30 591.94-11.38L591.94-11.38L591.94-12.96Q591.94-15.32 590.93-16.53Q589.92-17.74 587.94-17.74L587.94-17.74Q586.64-17.74 585.75-17.41Q584.86-17.08 584.21-16.67Q583.56-16.26 583.09-15.93Q582.62-15.60 582.16-15.60L582.16-15.60Q581.80-15.60 581.53-15.79Q581.26-15.98 581.10-16.26L581.10-16.26L580.46-17.40Q582.14-19.02 584.08-19.82Q586.02-20.62 588.38-20.62L588.38-20.62Q590.08-20.62 591.40-20.06Q592.72-19.50 593.62-18.50Q594.52-17.50 594.98-16.08Q595.44-14.66 595.44-12.96L595.44-12.96ZM586.20-2.18L586.20-2.18Q587.14-2.18 587.92-2.37Q588.70-2.56 589.39-2.91Q590.08-3.26 590.71-3.76Q591.34-4.26 591.94-4.90L591.94-4.90L591.94-9.12Q589.48-9.04 587.76-8.73Q586.04-8.42 584.96-7.92Q583.88-7.42 583.39-6.74Q582.90-6.06 582.90-5.22L582.90-5.22Q582.90-4.42 583.16-3.84Q583.42-3.26 583.86-2.89Q584.30-2.52 584.90-2.35Q585.50-2.18 586.20-2.18Z M606.80 0L603.24 0L603.24-20.26L605.36-20.26Q606.12-20.26 606.32-19.52L606.32-19.52L606.60-17.32Q607.92-18.78 609.55-19.68Q611.18-20.58 613.32-20.58L613.32-20.58Q614.98-20.58 616.25-20.03Q617.52-19.48 618.37-18.47Q619.22-17.46 619.66-16.04Q620.10-14.62 620.10-12.90L620.10-12.90L620.10 0L616.54 0L616.54-12.90Q616.54-15.20 615.49-16.47Q614.44-17.74 612.28-17.74L612.28-17.74Q610.70-17.74 609.33-16.98Q607.96-16.22 606.80-14.92L606.80-14.92L606.80 0Z"/></g>
</svg>
</g><g opacity="1" transform="rotate(0 -36.9551 183.1386)">
<svg width="382.1672" height="40" x="-36.9551" y="183.1386" version="1.1" preserveAspectRatio="none" viewBox="0.48 -33.2 416.55999999999995 43.60000000000001">
  <g transform="matrix(1 0 0 1 0 0)" class="companyName"><path id="id-D6z1nYkh18" d="M17-14.36L11.12 0.40L9.64 0.40L4.44-16.24Q4.08-17.36 3.76-18.04Q3.44-18.72 3-19.12Q2.56-19.52 1.96-19.66Q1.36-19.80 0.48-19.80L0.48-19.80L0.48-21.20L11.08-21.20L11.08-19.80Q9.52-19.80 8.88-19.44Q8.24-19.08 8.24-18.20L8.24-18.20Q8.24-17.80 8.36-17.26Q8.48-16.72 8.68-15.92L8.68-15.92L11.40-6.36L11.56-6.36L17.44-21.20L18.68-21.20L24-6.36L24.16-6.36L26.56-12.84Q27.04-14.16 27.36-15.06Q27.68-15.96 27.86-16.58Q28.04-17.20 28.12-17.60Q28.20-18 28.20-18.36L28.20-18.36Q28.20-19.24 27.68-19.52Q27.16-19.80 25.52-19.80L25.52-19.80L25.52-21.20L33.52-21.20L33.52-19.80Q32.92-19.80 32.50-19.62Q32.08-19.44 31.66-18.92Q31.24-18.40 30.80-17.44Q30.36-16.48 29.72-14.92L29.72-14.92L23.52 0.40L22.04 0.40L17.16-14.36L17-14.36Z M43.20-21.60L43.20-6.36Q43.20-4.80 43.34-3.86Q43.48-2.92 43.88-2.38Q44.28-1.84 45-1.64Q45.72-1.44 46.92-1.40L46.92-1.40L46.92 0L35.44 0L35.44-1.40Q36.64-1.44 37.40-1.66Q38.16-1.88 38.58-2.38Q39-2.88 39.14-3.78Q39.28-4.68 39.28-6.08L39.28-6.08L39.28-11.20Q39.28-13.52 39.22-15.02Q39.16-16.52 39-17.08L39-17.08Q38.80-18 38.08-18.34Q37.36-18.68 35.36-18.68L35.36-18.68L35.36-20.08L43.20-21.60ZM38.60-29.72L38.60-29.72Q38.60-30.76 39.32-31.48Q40.04-32.20 41.08-32.20L41.08-32.20Q42.12-32.20 42.84-31.48Q43.56-30.76 43.56-29.72L43.56-29.72Q43.56-28.68 42.84-27.96Q42.12-27.24 41.08-27.24L41.08-27.24Q40.04-27.24 39.32-27.96Q38.60-28.68 38.60-29.72Z M56.24-21.60L56.24 0.08Q56.24 5.08 54.14 7.74Q52.04 10.40 48.04 10.40L48.04 10.40Q45.48 10.40 43.86 9.38Q42.24 8.36 42.24 6.68L42.24 6.68Q42.24 5.76 42.78 5.28Q43.32 4.80 44.28 4.80L44.28 4.80Q45 4.80 45.38 5.14Q45.76 5.48 46.36 6.68L46.36 6.68Q46.92 7.88 47.40 8.28Q47.88 8.68 48.88 8.68L48.88 8.68Q50.80 8.68 51.56 7.36Q52.32 6.04 52.32 2.72L52.32 2.72L52.32-11.20Q52.32-13.52 52.26-15.02Q52.20-16.52 52.04-17.08L52.04-17.08Q51.84-18 51.12-18.34Q50.40-18.68 48.40-18.68L48.40-18.68L48.40-20.08L56.24-21.60ZM51.72-29.72L51.72-29.72Q51.72-30.76 52.44-31.48Q53.16-32.20 54.20-32.20L54.20-32.20Q55.24-32.20 55.96-31.48Q56.68-30.76 56.68-29.72L56.68-29.72Q56.68-28.68 55.96-27.96Q55.24-27.24 54.20-27.24L54.20-27.24Q53.16-27.24 52.44-27.96Q51.72-28.68 51.72-29.72Z M73.84-8.68L73.84-11.84Q71.56-10.96 69.98-10.12Q68.40-9.28 67.44-8.44Q66.48-7.60 66.06-6.76Q65.64-5.92 65.64-5.04L65.64-5.04Q65.64-3.72 66.52-2.88Q67.40-2.04 68.84-2.04L68.84-2.04Q69.88-2.04 70.78-2.56Q71.68-3.08 72.36-3.98Q73.04-4.88 73.44-6.10Q73.84-7.32 73.84-8.68L73.84-8.68ZM68.08-11.04L73.84-13.56L73.84-15.20Q73.84-20.08 69.68-20.08L69.68-20.08Q69-20.08 68.52-19.96Q68.04-19.84 67.72-19.56Q67.40-19.28 67.14-18.76Q66.88-18.24 66.64-17.48L66.64-17.48Q66.20-16.32 65.78-15.94Q65.36-15.56 64.56-15.56L64.56-15.56Q62.56-15.56 62.56-17.56L62.56-17.56Q62.56-19.48 64.60-20.54Q66.64-21.60 70.40-21.60L70.40-21.60Q74.40-21.60 76.08-20.18Q77.76-18.76 77.76-15.36L77.76-15.36L77.76-6.40Q77.76-1.84 79.56-1.84L79.56-1.84Q80.12-1.84 80.64-1.98Q81.16-2.12 81.52-2.72L81.52-2.72L82.08-1.76Q81.60-0.84 80.32-0.22Q79.04 0.40 77.64 0.40L77.64 0.40Q75.88 0.40 75.02-0.72Q74.16-1.84 74.16-3.88L74.16-3.88L73.96-3.88Q72.92-1.92 71.08-0.78Q69.24 0.36 67 0.36L67 0.36Q64.48 0.36 63.04-0.92Q61.60-2.20 61.60-4.36L61.60-4.36Q61.60-5.32 61.94-6.20Q62.28-7.08 63.04-7.88Q63.80-8.68 65.04-9.46Q66.28-10.24 68.08-11.04L68.08-11.04Z M101.16-13.12L92.44 6.28Q90.60 10.40 86.72 10.40L86.72 10.40Q84.20 10.40 84.20 8.52L84.20 8.52Q84.20 7.52 84.90 7.06Q85.60 6.60 87.48 6.28L87.48 6.28Q88.32 6.16 88.92 5.94Q89.52 5.72 90.00 5.38Q90.48 5.04 90.86 4.52Q91.24 4 91.60 3.24L91.60 3.24L93.00 0.44L85.32-16.24Q84.80-17.36 84.42-18.02Q84.04-18.68 83.62-19.06Q83.20-19.44 82.68-19.58Q82.16-19.72 81.36-19.80L81.36-19.80L81.36-21.20L91.96-21.20L91.96-19.80Q89.28-19.80 89.28-18.48L89.28-18.48Q89.28-17.96 89.60-16.84Q89.92-15.72 90.40-14.56L90.40-14.56L94.80-3.92L95.00-3.92L98.64-12.92Q99.16-14.24 99.50-15.08Q99.84-15.92 100.02-16.46Q100.20-17 100.26-17.36Q100.32-17.72 100.32-18.04L100.32-18.04Q100.32-19.08 99.74-19.44Q99.16-19.80 97.52-19.80L97.52-19.80L97.52-21.20L106.32-21.20L106.32-19.80Q105.56-19.80 105.04-19.60Q104.52-19.40 103.98-18.70Q103.44-18 102.78-16.68Q102.12-15.36 101.16-13.12L101.16-13.12Z M120.32-8.68L120.32-11.84Q118.04-10.96 116.46-10.12Q114.88-9.28 113.92-8.44Q112.96-7.60 112.54-6.76Q112.12-5.92 112.12-5.04L112.12-5.04Q112.12-3.72 113.00-2.88Q113.88-2.04 115.32-2.04L115.32-2.04Q116.36-2.04 117.26-2.56Q118.16-3.08 118.84-3.98Q119.52-4.88 119.92-6.10Q120.32-7.32 120.32-8.68L120.32-8.68ZM114.56-11.04L120.32-13.56L120.32-15.20Q120.32-20.08 116.16-20.08L116.16-20.08Q115.48-20.08 115.00-19.96Q114.52-19.84 114.20-19.56Q113.88-19.28 113.62-18.76Q113.36-18.24 113.12-17.48L113.12-17.48Q112.68-16.32 112.26-15.94Q111.84-15.56 111.04-15.56L111.04-15.56Q109.04-15.56 109.04-17.56L109.04-17.56Q109.04-19.48 111.08-20.54Q113.12-21.60 116.88-21.60L116.88-21.60Q120.88-21.60 122.56-20.18Q124.24-18.76 124.24-15.36L124.24-15.36L124.24-6.40Q124.24-1.84 126.04-1.84L126.04-1.84Q126.60-1.84 127.12-1.98Q127.64-2.12 128.00-2.72L128.00-2.72L128.56-1.76Q128.08-0.84 126.80-0.22Q125.52 0.40 124.12 0.40L124.12 0.40Q122.36 0.40 121.50-0.72Q120.64-1.84 120.64-3.88L120.64-3.88L120.44-3.88Q119.40-1.92 117.56-0.78Q115.72 0.36 113.48 0.36L113.48 0.36Q110.96 0.36 109.52-0.92Q108.08-2.20 108.08-4.36L108.08-4.36Q108.08-5.32 108.42-6.20Q108.76-7.08 109.52-7.88Q110.28-8.68 111.52-9.46Q112.76-10.24 114.56-11.04L114.56-11.04Z M137.40-7.72L137.40-6.36Q137.40-4.72 137.48-3.76Q137.56-2.80 137.90-2.30Q138.24-1.80 138.88-1.64Q139.52-1.48 140.68-1.40L140.68-1.40L140.68 0L130.04 0L130.04-1.40Q131.20-1.44 131.88-1.62Q132.56-1.80 132.92-2.28Q133.28-2.76 133.38-3.66Q133.48-4.56 133.48-6.08L133.48-6.08L133.48-10.76Q133.48-13.48 133.42-15Q133.36-16.52 133.02-17.24Q132.68-17.96 131.96-18.10Q131.24-18.24 129.96-18.24L129.96-18.24L129.96-19.64L136.96-21.16L137.52-16.20L137.68-16.20Q138.20-17.40 138.98-18.40Q139.76-19.40 140.68-20.10Q141.60-20.80 142.60-21.20Q143.60-21.60 144.64-21.60L144.64-21.60Q145.92-21.60 146.66-20.98Q147.40-20.36 147.40-19.32L147.40-19.32Q147.40-18.36 146.80-17.82Q146.20-17.28 145.08-17.28L145.08-17.28Q144.44-17.28 144.00-17.44Q143.56-17.60 143.22-17.78Q142.88-17.96 142.58-18.12Q142.28-18.28 141.92-18.28L141.92-18.28Q140.84-18.28 139.76-16.90Q138.68-15.52 138.08-13.40L138.08-13.40Q137.76-12.24 137.58-10.78Q137.40-9.32 137.40-7.72L137.40-7.72Z M166.80-4.84L168.04-3.72Q164.64 0.40 159.60 0.40L159.60 0.40Q157.24 0.40 155.32-0.38Q153.40-1.16 152.02-2.58Q150.64-4 149.88-5.98Q149.12-7.96 149.12-10.36L149.12-10.36Q149.12-12.80 149.92-14.88Q150.72-16.96 152.18-18.44Q153.64-19.92 155.66-20.76Q157.68-21.60 160.08-21.60L160.08-21.60Q163.96-21.60 166.08-19.50Q168.20-17.40 168.20-13.48L168.20-13.48Q168.20-12.92 167.98-12.80Q167.76-12.68 166.96-12.68L166.96-12.68L153.80-12.68Q153.72-12.36 153.68-11.90Q153.64-11.44 153.64-10.88L153.64-10.88Q153.64-8.80 154.14-7.10Q154.64-5.40 155.58-4.20Q156.52-3 157.82-2.34Q159.12-1.68 160.72-1.68L160.72-1.68Q162.40-1.68 163.84-2.42Q165.28-3.16 166.80-4.84L166.80-4.84ZM154.08-14.52L161.44-14.52Q162.24-14.52 162.72-14.56Q163.20-14.60 163.44-14.72Q163.68-14.84 163.76-15.06Q163.84-15.28 163.84-15.64L163.84-15.64Q163.84-17.48 162.66-18.58Q161.48-19.68 159.44-19.68L159.44-19.68Q155.12-19.68 154.08-14.52L154.08-14.52Z M178.72-11.64L178.72-6.28Q178.72-4.64 178.80-3.70Q178.88-2.76 179.22-2.26Q179.56-1.76 180.22-1.60Q180.88-1.44 182.04-1.36L182.04-1.36L182.04 0L171.56 0L171.56-1.36Q172.68-1.44 173.34-1.60Q174.00-1.76 174.36-2.24Q174.72-2.72 174.82-3.60Q174.92-4.48 174.92-6L174.92-6L174.92-11.32Q174.92-16.08 174.68-17.12L174.68-17.12Q174.56-17.64 174.38-17.98Q174.20-18.32 173.84-18.50Q173.48-18.68 172.92-18.74Q172.36-18.80 171.48-18.80L171.48-18.80L171.48-20.08L177.88-21.60L178.36-17.64L178.52-17.64Q180.04-19.52 182.08-20.56Q184.12-21.60 186.52-21.60L186.52-21.60Q188.36-21.60 189.88-21Q191.40-20.40 192.20-19.36L192.20-19.36Q192.88-18.44 193.16-16.98Q193.44-15.52 193.44-12.96L193.44-12.96L193.44-6.28Q193.44-4.64 193.54-3.70Q193.64-2.76 193.96-2.26Q194.28-1.76 194.94-1.60Q195.60-1.44 196.68-1.36L196.68-1.36L196.68 0L186.32 0L186.32-1.36Q187.44-1.40 188.10-1.58Q188.76-1.76 189.10-2.24Q189.44-2.72 189.54-3.62Q189.64-4.52 189.64-6L189.64-6L189.64-11.28Q189.64-13.56 189.40-15.12Q189.16-16.68 188.62-17.64Q188.08-18.60 187.20-19.02Q186.32-19.44 185.08-19.44L185.08-19.44Q183.28-19.44 181.78-18.50Q180.28-17.56 179.44-15.92L179.44-15.92Q179.24-15.52 179.10-15.16Q178.96-14.80 178.88-14.32Q178.80-13.84 178.76-13.22Q178.72-12.60 178.72-11.64L178.72-11.64Z M201.64-18.68L199.24-18.68L199.24-20.16Q201.36-21.40 202.56-22.64Q203.76-23.88 204.40-25.60L204.40-25.60L205.56-25.60L205.56-20.56L210.92-20.56L210.92-18.68L205.56-18.68L205.56-6.52Q205.56-5.12 205.70-4.16Q205.84-3.20 206.16-2.62Q206.48-2.04 207-1.80Q207.52-1.56 208.32-1.56L208.32-1.56Q209.32-1.56 210.02-1.98Q210.72-2.40 211.40-3.40L211.40-3.40L212.40-2.64Q211.84-1.16 210.46-0.38Q209.08 0.40 207.04 0.40L207.04 0.40Q204.40 0.40 203.02-0.86Q201.64-2.12 201.64-4.48L201.64-4.48L201.64-18.68Z M231.80-4.48L233-3.32Q231.56-1.56 229.28-0.58Q227 0.40 224.36 0.40L224.36 0.40Q222.24 0.40 220.46-0.38Q218.68-1.16 217.40-2.58Q216.12-4 215.42-6Q214.72-8 214.72-10.44L214.72-10.44Q214.72-13 215.52-15.06Q216.32-17.12 217.78-18.58Q219.24-20.04 221.30-20.82Q223.36-21.60 225.84-21.60L225.84-21.60Q227.40-21.60 228.68-21.34Q229.96-21.08 230.90-20.62Q231.84-20.16 232.36-19.50Q232.88-18.84 232.88-18.08L232.88-18.08Q232.88-17.28 232.36-16.84Q231.84-16.40 230.92-16.40L230.92-16.40Q230.20-16.40 229.72-16.70Q229.24-17 228.48-18.04L228.48-18.04Q227.68-18.96 226.94-19.34Q226.20-19.72 225.04-19.72L225.04-19.72Q222.20-19.72 220.74-17.52Q219.28-15.32 219.28-11.04L219.28-11.04Q219.28-6.44 220.90-4.06Q222.52-1.68 225.64-1.68L225.64-1.68Q227.32-1.68 228.80-2.34Q230.28-3 231.80-4.48L231.80-4.48Z M248.16-8.68L248.16-11.84Q245.88-10.96 244.30-10.12Q242.72-9.28 241.76-8.44Q240.80-7.60 240.38-6.76Q239.96-5.92 239.96-5.04L239.96-5.04Q239.96-3.72 240.84-2.88Q241.72-2.04 243.16-2.04L243.16-2.04Q244.20-2.04 245.10-2.56Q246-3.08 246.68-3.98Q247.36-4.88 247.76-6.10Q248.16-7.32 248.16-8.68L248.16-8.68ZM242.40-11.04L248.16-13.56L248.16-15.20Q248.16-20.08 244-20.08L244-20.08Q243.32-20.08 242.84-19.96Q242.36-19.84 242.04-19.56Q241.72-19.28 241.46-18.76Q241.20-18.24 240.96-17.48L240.96-17.48Q240.52-16.32 240.10-15.94Q239.68-15.56 238.88-15.56L238.88-15.56Q236.88-15.56 236.88-17.56L236.88-17.56Q236.88-19.48 238.92-20.54Q240.96-21.60 244.72-21.60L244.72-21.60Q248.72-21.60 250.40-20.18Q252.08-18.76 252.08-15.36L252.08-15.36L252.08-6.40Q252.08-1.84 253.88-1.84L253.88-1.84Q254.44-1.84 254.96-1.98Q255.48-2.12 255.84-2.72L255.84-2.72L256.40-1.76Q255.92-0.84 254.64-0.22Q253.36 0.40 251.96 0.40L251.96 0.40Q250.20 0.40 249.34-0.72Q248.48-1.84 248.48-3.88L248.48-3.88L248.28-3.88Q247.24-1.92 245.40-0.78Q243.56 0.36 241.32 0.36L241.32 0.36Q238.80 0.36 237.36-0.92Q235.92-2.20 235.92-4.36L235.92-4.36Q235.92-5.32 236.26-6.20Q236.60-7.08 237.36-7.88Q238.12-8.68 239.36-9.46Q240.60-10.24 242.40-11.04L242.40-11.04Z M265.24-7.72L265.24-6.36Q265.24-4.72 265.32-3.76Q265.40-2.80 265.74-2.30Q266.08-1.80 266.72-1.64Q267.36-1.48 268.52-1.40L268.52-1.40L268.52 0L257.88 0L257.88-1.40Q259.04-1.44 259.72-1.62Q260.40-1.80 260.76-2.28Q261.12-2.76 261.22-3.66Q261.32-4.56 261.32-6.08L261.32-6.08L261.32-10.76Q261.32-13.48 261.26-15Q261.20-16.52 260.86-17.24Q260.52-17.96 259.80-18.10Q259.08-18.24 257.80-18.24L257.80-18.24L257.80-19.64L264.80-21.16L265.36-16.20L265.52-16.20Q266.04-17.40 266.82-18.40Q267.60-19.40 268.52-20.10Q269.44-20.80 270.44-21.20Q271.44-21.60 272.48-21.60L272.48-21.60Q273.76-21.60 274.50-20.98Q275.24-20.36 275.24-19.32L275.24-19.32Q275.24-18.36 274.64-17.82Q274.04-17.28 272.92-17.28L272.92-17.28Q272.28-17.28 271.84-17.44Q271.40-17.60 271.06-17.78Q270.72-17.96 270.42-18.12Q270.12-18.28 269.76-18.28L269.76-18.28Q268.68-18.28 267.60-16.90Q266.52-15.52 265.92-13.40L265.92-13.40Q265.60-12.24 265.42-10.78Q265.24-9.32 265.24-7.72L265.24-7.72Z M284.28-11.48L284.28-6.40Q284.28-4.72 284.36-3.76Q284.44-2.80 284.78-2.30Q285.12-1.80 285.76-1.64Q286.40-1.48 287.56-1.40L287.56-1.40L287.56 0L276.92 0L276.92-1.40Q278.08-1.48 278.76-1.64Q279.44-1.80 279.80-2.28Q280.16-2.76 280.26-3.66Q280.36-4.56 280.36-6.08L280.36-6.08L280.36-11.20Q280.36-13.48 280.30-15Q280.24-16.52 280.08-17.08L280.08-17.08Q279.96-17.60 279.80-17.90Q279.64-18.20 279.28-18.38Q278.92-18.56 278.34-18.62Q277.76-18.68 276.84-18.68L276.84-18.68L276.84-20.08L283.36-21.60L283.88-17.60L284.08-17.60Q285.88-19.64 287.86-20.62Q289.84-21.60 292.24-21.60L292.24-21.60Q294.76-21.60 296.48-20.58Q298.20-19.56 298.88-17.64L298.88-17.64L299.04-17.64Q300.52-19.52 302.64-20.56Q304.76-21.60 307.16-21.60L307.16-21.60Q309.04-21.60 310.58-20.98Q312.12-20.36 312.92-19.28L312.92-19.28Q313.64-18.36 313.94-16.86Q314.24-15.36 314.24-12.76L314.24-12.76L314.24-6.40Q314.24-4.76 314.34-3.80Q314.44-2.84 314.76-2.32Q315.08-1.80 315.74-1.64Q316.40-1.48 317.56-1.40L317.56-1.40L317.56 0L306.92 0L306.92-1.40Q308.04-1.44 308.72-1.62Q309.40-1.80 309.76-2.30Q310.12-2.80 310.22-3.68Q310.32-4.56 310.32-6.08L310.32-6.08L310.32-11.12Q310.32-13.40 310.08-14.98Q309.84-16.56 309.28-17.54Q308.72-18.52 307.82-18.96Q306.92-19.40 305.64-19.40L305.64-19.40Q303.88-19.40 302.34-18.42Q300.80-17.44 299.92-15.80L299.92-15.80Q299.72-15.40 299.58-15.02Q299.44-14.64 299.36-14.18Q299.28-13.72 299.26-13.08Q299.24-12.44 299.24-11.48L299.24-11.48L299.24-6.40Q299.24-4.76 299.32-3.80Q299.40-2.84 299.74-2.32Q300.08-1.80 300.76-1.64Q301.44-1.48 302.60-1.40L302.60-1.40L302.60 0L291.96 0L291.96-1.40Q293.08-1.48 293.76-1.64Q294.44-1.80 294.78-2.28Q295.12-2.76 295.22-3.66Q295.32-4.56 295.32-6.08L295.32-6.08L295.32-11.12Q295.32-13.44 295.08-15.02Q294.84-16.60 294.30-17.58Q293.76-18.56 292.88-18.98Q292-19.40 290.72-19.40L290.72-19.40Q288.92-19.40 287.34-18.42Q285.76-17.44 284.96-15.80L284.96-15.80Q284.76-15.40 284.62-15.02Q284.48-14.64 284.40-14.18Q284.32-13.72 284.30-13.08Q284.28-12.44 284.28-11.48L284.28-11.48Z M338-4.84L339.24-3.72Q335.84 0.40 330.80 0.40L330.80 0.40Q328.44 0.40 326.52-0.38Q324.60-1.16 323.22-2.58Q321.84-4 321.08-5.98Q320.32-7.96 320.32-10.36L320.32-10.36Q320.32-12.80 321.12-14.88Q321.92-16.96 323.38-18.44Q324.84-19.92 326.86-20.76Q328.88-21.60 331.28-21.60L331.28-21.60Q335.16-21.60 337.28-19.50Q339.40-17.40 339.40-13.48L339.40-13.48Q339.40-12.92 339.18-12.80Q338.96-12.68 338.16-12.68L338.16-12.68L325-12.68Q324.92-12.36 324.88-11.90Q324.84-11.44 324.84-10.88L324.84-10.88Q324.84-8.80 325.34-7.10Q325.84-5.40 326.78-4.20Q327.72-3 329.02-2.34Q330.32-1.68 331.92-1.68L331.92-1.68Q333.60-1.68 335.04-2.42Q336.48-3.16 338-4.84L338-4.84ZM325.28-14.52L332.64-14.52Q333.44-14.52 333.92-14.56Q334.40-14.60 334.64-14.72Q334.88-14.84 334.96-15.06Q335.04-15.28 335.04-15.64L335.04-15.64Q335.04-17.48 333.86-18.58Q332.68-19.68 330.64-19.68L330.64-19.68Q326.32-19.68 325.28-14.52L325.28-14.52Z M360.64 0.40L360.64-3.36L360.48-3.36Q359.04-1.32 357.42-0.46Q355.80 0.40 353.60 0.40L353.60 0.40Q351.32 0.40 349.42-0.42Q347.52-1.24 346.14-2.70Q344.76-4.16 343.98-6.20Q343.20-8.24 343.20-10.64L343.20-10.64Q343.20-13 343.98-15.02Q344.76-17.04 346.14-18.50Q347.52-19.96 349.44-20.78Q351.36-21.60 353.60-21.60L353.60-21.60Q355.52-21.60 357.02-20.96Q358.52-20.32 359.92-18.92L359.92-18.92L359.92-23Q359.92-25.28 359.86-26.80Q359.80-28.32 359.68-28.88L359.68-28.88Q359.48-29.76 358.56-30.12Q357.64-30.48 355.56-30.48L355.56-30.48L355.56-31.68L363.76-33.20L363.76-10.12Q363.76-7.36 363.80-5.58Q363.84-3.80 364.04-3.04L364.04-3.04Q364.16-2.56 364.34-2.24Q364.52-1.92 364.86-1.74Q365.20-1.56 365.78-1.48Q366.36-1.40 367.28-1.40L367.28-1.40L367.28-0.04L360.64 0.40ZM359.84-9.56L359.84-12.20Q359.84-14.28 359.62-15.36Q359.40-16.44 358.76-17.24L358.76-17.24Q357.84-18.44 356.42-19.06Q355.00-19.68 353.60-19.68L353.60-19.68Q350.72-19.68 349.22-17.30Q347.72-14.92 347.72-10.84L347.72-10.84Q347.72-8.72 348.10-7Q348.48-5.28 349.22-4.06Q349.96-2.84 351.06-2.18Q352.16-1.52 353.60-1.52L353.60-1.52Q354.32-1.52 355.06-1.68Q355.80-1.84 356.50-2.18Q357.20-2.52 357.80-2.98Q358.40-3.44 358.80-4.04L358.80-4.04Q359.36-4.92 359.60-6.16Q359.84-7.40 359.84-9.56L359.84-9.56Z M382.24-8.68L382.24-11.84Q379.96-10.96 378.38-10.12Q376.80-9.28 375.84-8.44Q374.88-7.60 374.46-6.76Q374.04-5.92 374.04-5.04L374.04-5.04Q374.04-3.72 374.92-2.88Q375.80-2.04 377.24-2.04L377.24-2.04Q378.28-2.04 379.18-2.56Q380.08-3.08 380.76-3.98Q381.44-4.88 381.84-6.10Q382.24-7.32 382.24-8.68L382.24-8.68ZM376.48-11.04L382.24-13.56L382.24-15.20Q382.24-20.08 378.08-20.08L378.08-20.08Q377.40-20.08 376.92-19.96Q376.44-19.84 376.12-19.56Q375.80-19.28 375.54-18.76Q375.28-18.24 375.04-17.48L375.04-17.48Q374.60-16.32 374.18-15.94Q373.76-15.56 372.96-15.56L372.96-15.56Q370.96-15.56 370.96-17.56L370.96-17.56Q370.96-19.48 373.00-20.54Q375.04-21.60 378.80-21.60L378.80-21.60Q382.80-21.60 384.48-20.18Q386.16-18.76 386.16-15.36L386.16-15.36L386.16-6.40Q386.16-1.84 387.96-1.84L387.96-1.84Q388.52-1.84 389.04-1.98Q389.56-2.12 389.92-2.72L389.92-2.72L390.48-1.76Q390-0.84 388.72-0.22Q387.44 0.40 386.04 0.40L386.04 0.40Q384.28 0.40 383.42-0.72Q382.56-1.84 382.56-3.88L382.56-3.88L382.36-3.88Q381.32-1.92 379.48-0.78Q377.64 0.36 375.40 0.36L375.40 0.36Q372.88 0.36 371.44-0.92Q370.00-2.20 370.00-4.36L370.00-4.36Q370.00-5.32 370.34-6.20Q370.68-7.08 371.44-7.88Q372.20-8.68 373.44-9.46Q374.68-10.24 376.48-11.04L376.48-11.04Z M399.08-11.64L399.08-6.28Q399.08-4.64 399.16-3.70Q399.24-2.76 399.58-2.26Q399.92-1.76 400.58-1.60Q401.24-1.44 402.40-1.36L402.40-1.36L402.40 0L391.92 0L391.92-1.36Q393.04-1.44 393.70-1.60Q394.36-1.76 394.72-2.24Q395.08-2.72 395.18-3.60Q395.28-4.48 395.28-6L395.28-6L395.28-11.32Q395.28-16.08 395.04-17.12L395.04-17.12Q394.92-17.64 394.74-17.98Q394.56-18.32 394.20-18.50Q393.84-18.68 393.28-18.74Q392.72-18.80 391.84-18.80L391.84-18.80L391.84-20.08L398.24-21.60L398.72-17.64L398.88-17.64Q400.40-19.52 402.44-20.56Q404.48-21.60 406.88-21.60L406.88-21.60Q408.72-21.60 410.24-21Q411.76-20.40 412.56-19.36L412.56-19.36Q413.24-18.44 413.52-16.98Q413.80-15.52 413.80-12.96L413.80-12.96L413.80-6.28Q413.80-4.64 413.90-3.70Q414.00-2.76 414.32-2.26Q414.64-1.76 415.30-1.60Q415.96-1.44 417.04-1.36L417.04-1.36L417.04 0L406.68 0L406.68-1.36Q407.80-1.40 408.46-1.58Q409.12-1.76 409.46-2.24Q409.80-2.72 409.90-3.62Q410.00-4.52 410.00-6L410.00-6L410.00-11.28Q410.00-13.56 409.76-15.12Q409.52-16.68 408.98-17.64Q408.44-18.60 407.56-19.02Q406.68-19.44 405.44-19.44L405.44-19.44Q403.64-19.44 402.14-18.50Q400.64-17.56 399.80-15.92L399.80-15.92Q399.60-15.52 399.46-15.16Q399.32-14.80 399.24-14.32Q399.16-13.84 399.12-13.22Q399.08-12.60 399.08-11.64L399.08-11.64Z"/></g>
</svg>
</g><g opacity="1" transform="rotate(0 77.695 69.5117)">
<svg width="152.8669" height="73.6269" x="77.695" y="69.5117" version="1.1" preserveAspectRatio="none" viewBox="19.974063873291016 61.42500305175781 160.02593994140625 77.07499694824219">
  <g transform="matrix(1 0 0 1 0 0)"><g><path d="M26.9 138.5h4.8l74.1-69.1-6.5-6.1c-2.7-2.5-6.8-2.5-9.4 0l-67.7 63.1c-4.6 4.3-1.6 12.1 4.7 12.1z" data-color="1" class="icon1"></path><path d="M138 138.2c1.5 0 1.8-.8.7-1.8l-15.3-14.3c-1.1-1-2.8-1-3.9 0l-15.3 14.3c-1.1 1-.8 1.8.7 1.8H138z" data-color="1" class="icon1"></path><path d="M57.3 138.5l61.3-57.2-12.8-11.9-74.1 69.1h25.6z" data-color="2" class="icon2"></path><path d="M80.9 138.5c1.8 0 3.4-.7 4.7-1.9l27.4-25.5c2.7-2.5 6.8-2.5 9.4 0l27.4 25.5c1.3 1.2 3 1.9 4.7 1.9H180l-61.3-57.2-61.3 57.2h23.5z" data-color="3" class="icon3"></path></g></g>
</svg>
</g></svg></svg>